<svg width="25" height="23" viewBox="0 0 25 23" fill="none" xmlns="http://www.w3.org/2000/svg">
<path d="M9.40918 17.1758C10.0647 17.1758 10.6803 17.4312 11.1436 17.8945C11.6067 18.3578 11.8613 18.9735 11.8613 19.6289C11.8613 20.2843 11.6068 20.9 11.1436 21.3633C10.6803 21.8265 10.0646 22.081 9.40918 22.0811C8.75374 22.0811 8.1381 21.8265 7.6748 21.3633C7.21155 20.9 6.95613 20.2843 6.95605 19.6289C6.95605 18.9734 7.21154 18.3578 7.6748 17.8945C8.13812 17.4312 8.75365 17.1758 9.40918 17.1758ZM21.2275 17.1758C21.8831 17.1758 22.4986 17.4312 22.9619 17.8945C23.4252 18.3578 23.6807 18.9734 23.6807 19.6289C23.6806 20.2843 23.4252 20.9 22.9619 21.3633C22.4986 21.8265 21.883 22.0811 21.2275 22.0811C20.5721 22.081 19.9564 21.8265 19.4932 21.3633C19.0299 20.9 18.7755 20.2843 18.7754 19.6289C18.7754 18.9735 19.03 18.3578 19.4932 17.8945C19.9564 17.4313 20.5721 17.1758 21.2275 17.1758ZM9.40918 18.333C8.69471 18.333 8.11328 18.9144 8.11328 19.6289C8.11343 20.3432 8.69481 20.9238 9.40918 20.9238C10.1235 20.9238 10.7049 20.3432 10.7051 19.6289C10.7051 18.9145 10.1236 18.3331 9.40918 18.333ZM21.2275 18.333C20.5132 18.3331 19.9316 18.9145 19.9316 19.6289C19.9318 20.3432 20.5132 20.9237 21.2275 20.9238C21.9419 20.9238 22.5233 20.3432 22.5234 19.6289C22.5234 18.9144 21.942 18.333 21.2275 18.333ZM5.33301 0C5.62641 0.000223515 5.87257 0.219185 5.90723 0.510742L6.1416 2.50488H24.4258C24.5898 2.50497 24.7468 2.57494 24.8564 2.69727C24.9661 2.81965 25.0181 2.98335 25 3.14648V3.14746L24.4365 8.31641V8.32031L23.8242 13.9268C23.7915 14.2203 23.5443 14.4422 23.249 14.4424H7.53906L7.69336 15.7549H23.1016C23.4207 15.7549 23.6807 16.0148 23.6807 16.334C23.6805 16.653 23.4215 16.9121 23.1016 16.9121H7.17871C6.88495 16.9121 6.63797 16.6923 6.60352 16.4004L4.81836 1.15723H0.579102C0.259949 1.15723 0 0.897277 0 0.578125C0.000102997 0.25906 0.259106 0 0.579102 0H5.33301ZM7.40723 13.3047C7.45615 13.2902 7.50912 13.2832 7.56348 13.2832H10.748L10.3135 8.83594H6.88379L7.40723 13.3047ZM11.9111 13.2832H14.5234V8.83594H11.4775L11.9111 13.2832ZM15.6807 13.2832H18.4092L18.8438 8.83594H15.6807V13.2832ZM19.5723 13.2832H22.7305L23.2148 8.83594H20.0059L19.5723 13.2832ZM6.74805 7.67871H10.2002L9.80762 3.66211H6.27734L6.74805 7.67871ZM11.3633 7.67871H14.5215V3.66211H10.9707L11.3633 7.67871ZM15.6807 7.67871H18.9561L19.3486 3.66211H15.6807V7.67871ZM20.1191 7.67871H23.3398L23.7793 3.66211H20.5117L20.1191 7.67871Z" fill="#282828"/>
</svg>
