<svg width="26" height="23" viewBox="0 0 26 23" fill="none" xmlns="http://www.w3.org/2000/svg">
<path d="M12.999 0.25C17.0044 0.250047 20.2539 3.5121 20.2539 7.52832C20.2539 9.40384 19.5447 11.1139 18.3818 12.4053C22.0645 14.096 24.8202 17.467 25.6621 21.542L25.7402 21.9502L25.749 22.0244C25.7597 22.1977 25.7036 22.3717 25.5898 22.5068C25.4615 22.6591 25.2715 22.7499 25.0693 22.75H0.930664C0.728469 22.7499 0.538517 22.6591 0.410156 22.5068C0.280175 22.3524 0.225908 22.1472 0.259766 21.9502L0.337891 21.542C1.18048 17.4668 3.93448 14.0973 7.61621 12.4062C6.45388 11.1147 5.74418 9.40322 5.74414 7.52832C5.74414 3.51207 8.9936 0.25 12.999 0.25ZM17.2666 13.4111C16.069 14.2873 14.5946 14.8066 13.001 14.8066C11.4068 14.8066 9.9313 14.2877 8.7334 13.4111C5.30067 14.7762 2.67314 17.7395 1.77148 21.3848H24.2295C23.3279 17.739 20.6996 14.7762 17.2666 13.4111ZM13.001 1.61621C9.7496 1.61621 7.1084 4.26434 7.1084 7.5293C7.1084 9.36415 7.94267 11.0035 9.25195 12.0889H9.25098C9.26524 12.0993 9.28438 12.1146 9.30469 12.1328H9.30566C10.3168 12.9512 11.6024 13.4414 13.001 13.4414C14.4006 13.4414 15.6861 12.9511 16.6963 12.1328V12.1338C16.7147 12.117 16.7333 12.1026 16.751 12.0898L16.75 12.0889C18.0592 11.0036 18.8936 9.36407 18.8936 7.5293C18.8936 4.26554 16.2523 1.61624 13.001 1.61621Z" fill="#282828" stroke="#282828" stroke-width="0.5"/>
</svg>
