<svg width="25" height="23" viewBox="0 0 25 23" fill="none" xmlns="http://www.w3.org/2000/svg">
<path d="M24.2695 8.85692L13.7121 0.436944L13.7113 0.436281C13.6168 0.357991 13.516 0.290081 13.4109 0.232772C13.3997 0.226588 13.3884 0.220625 13.3771 0.214773C13.363 0.207485 13.3489 0.200307 13.3349 0.193461C13.3285 0.190148 13.3221 0.187057 13.3157 0.184186C13.3018 0.177339 13.288 0.171045 13.274 0.164972L13.252 0.155144C13.2503 0.154371 13.2487 0.153598 13.2472 0.153157C13.049 0.0679101 12.8407 0.0187719 12.6314 0.00452734C12.6049 0.00253973 12.5784 0.0014355 12.5519 0.000772961C12.5456 0.000552115 12.5392 0.000331269 12.5329 0.000220846C12.5231 0.000220846 12.5134 0 12.5038 0H12.4963C12.4865 0 12.4769 0 12.4671 0.000220846C12.4608 0.000220846 12.4545 0.000441692 12.4481 0.000772961C12.4217 0.0014355 12.3951 0.00265015 12.3686 0.00452734C12.1759 0.0175573 11.9838 0.0604014 11.8 0.133722C11.7844 0.140016 11.7688 0.146421 11.7533 0.152936C11.7513 0.153709 11.7495 0.154592 11.7476 0.155365C11.7404 0.158457 11.7331 0.161659 11.7259 0.164861C11.7133 0.170493 11.7006 0.176235 11.688 0.182198C11.6789 0.186394 11.6699 0.190811 11.661 0.195228C11.6489 0.20108 11.6369 0.207264 11.6249 0.213558C11.5055 0.275505 11.3914 0.350703 11.2851 0.439042L0.730415 8.85681C-0.100886 9.5199 -0.243781 10.7395 0.411028 11.5811C0.7891 12.0668 1.35054 12.3206 1.91754 12.3206C2.11443 12.3206 2.3123 12.29 2.50308 12.2277V22.2294C2.50308 22.6549 2.84385 23 3.26435 23H10.0862C10.2887 23 10.4827 22.9184 10.6256 22.7731C10.7685 22.628 10.8484 22.4311 10.8476 22.2262L10.8262 16.7856L14.2743 16.782L14.246 22.2253C14.245 22.4303 14.3248 22.6274 14.4675 22.7729C14.6106 22.9183 14.8047 23 15.0073 23H21.7357C22.1561 23 22.4969 22.6549 22.4969 22.2294V12.2277C22.6878 12.29 22.8855 12.3206 23.0825 12.3206C23.6494 12.3206 24.2108 12.0669 24.5889 11.5811C25.2439 10.7395 25.1009 9.5199 24.2695 8.85681V8.85692ZM20.9743 21.4586H15.7726L15.8008 16.0145C15.802 15.8094 15.7221 15.612 15.579 15.4667C15.4361 15.3215 15.242 15.2398 15.0395 15.2398H15.0387L10.0609 15.245C9.85858 15.2451 9.66475 15.3269 9.52207 15.472C9.37939 15.6172 9.29965 15.814 9.30042 16.0187L9.3218 21.4586H4.02573V11.1677L12.5 4.40919L20.9742 11.1677V21.4586H20.9743Z" fill="#282828"/>
</svg>
